{
    "accessors" : [
        {
            "bufferView" : 0,
            "componentType" : 5123,
            "count" : 1071,
            "max" : [
                566
            ],
            "min" : [
                0
            ],
            "type" : "SCALAR"
        },
        {
            "bufferView" : 1,
            "componentType" : 5126,
            "count" : 567,
            "max" : [
                0.8349149823188782,
                1.290241003036499,
                -0.0
            ],
            "min" : [
                -0.8349149823188782,
                -1.3031669855117798,
                -0.32286301255226135
            ],
            "type" : "VEC3"
        },
        {
            "bufferView" : 2,
            "componentType" : 5126,
            "count" : 567,
            "max" : [
                1.0,
                1.0,
                1.0
            ],
            "min" : [
                -1.0,
                -1.0,
                -1.0
            ],
            "type" : "VEC3"
        },
        {
            "bufferView" : 3,
            "componentType" : 5123,
            "count" : 243,
            "max" : [
                72
            ],
            "min" : [
                0
            ],
            "type" : "SCALAR"
        },
        {
            "bufferView" : 4,
            "componentType" : 5126,
            "count" : 73,
            "max" : [
                0.6500189900398254,
                0.36375299096107483,
                -0.062314994633197784
            ],
            "min" : [
                -0.6500189900398254,
                -1.1061700582504272,
                -0.2616890072822571
            ],
            "type" : "VEC3"
        },
        {
            "bufferView" : 5,
            "componentType" : 5126,
            "count" : 73,
            "max" : [
                0.712118923664093,
                0.8121585845947266,
                1.0
            ],
            "min" : [
                -0.712118923664093,
                -0.8122196197509766,
                -1.0
            ],
            "type" : "VEC3"
        }
    ],
    "asset" : {
        "generator" : "Khronos Blender glTF 2.0 exporter",
        "version" : "2.0"
    },
    "bufferViews" : [
        {
            "buffer" : 0,
            "byteLength" : 2142,
            "byteOffset" : 0,
            "target" : 34963
        },
        {
            "buffer" : 0,
            "byteLength" : 6804,
            "byteOffset" : 2144,
            "target" : 34962
        },
        {
            "buffer" : 0,
            "byteLength" : 6804,
            "byteOffset" : 8948,
            "target" : 34962
        },
        {
            "buffer" : 0,
            "byteLength" : 486,
            "byteOffset" : 15752,
            "target" : 34963
        },
        {
            "buffer" : 0,
            "byteLength" : 876,
            "byteOffset" : 16240,
            "target" : 34962
        },
        {
            "buffer" : 0,
            "byteLength" : 876,
            "byteOffset" : 17116,
            "target" : 34962
        }
    ],
    "buffers" : [
        {
            "byteLength" : 17992,
            "uri" : "house_logo.bin"
        }
    ],
    "materials" : [
        {
            "name" : "blue",
            "pbrMetallicRoughness" : {
                "baseColorFactor" : [
                    0.009829198715525844,
                    0.007776983198180543,
                    0.06920038564801789,
                    1.0
                ],
                "metallicFactor" : 0.0
            }
        },
        {
            "alphaMode" : "BLEND",
            "name" : "white",
            "pbrMetallicRoughness" : {
                "baseColorFactor" : [
                    0.800000011920929,
                    0.800000011920929,
                    0.800000011920929,
                    1.0
                ],
                "metallicFactor" : 0.0
            }
        }
    ],
    "meshes" : [
        {
            "name" : "Plane.003_Plane.009",
            "primitives" : [
                {
                    "attributes" : {
                        "NORMAL" : 2,
                        "POSITION" : 1
                    },
                    "indices" : 0,
                    "material" : 0
                },
                {
                    "attributes" : {
                        "NORMAL" : 5,
                        "POSITION" : 4
                    },
                    "indices" : 3,
                    "material" : 1
                }
            ]
        }
    ],
    "nodes" : [
        {
            "mesh" : 0,
            "name" : "Plane.003_Plane.009",
            "rotation" : [
                0.7071068286895752,
                0.0,
                -0.0,
                0.7071067094802856
            ]
        }
    ],
    "scene" : 0,
    "scenes" : [
        {
            "name" : "Scene",
            "nodes" : [
                0
            ]
        }
    ]
}
