{
    "accessors" : [
        {
            "bufferView" : 0,
            "componentType" : 5123,
            "count" : 717,
            "max" : [
                396
            ],
            "min" : [
                0
            ],
            "type" : "SCALAR"
        },
        {
            "bufferView" : 1,
            "componentType" : 5126,
            "count" : 397,
            "max" : [
                0.6500189900398254,
                0.36375299096107483,
                -0.062314994633197784
            ],
            "min" : [
                -0.6500189900398254,
                -1.1061700582504272,
                -0.2616890072822571
            ],
            "type" : "VEC3"
        },
        {
            "bufferView" : 2,
            "componentType" : 5126,
            "count" : 397,
            "max" : [
                1.0,
                1.0,
                1.0
            ],
            "min" : [
                -1.0,
                -1.0,
                -1.0
            ],
            "type" : "VEC3"
        },
        {
            "bufferView" : 3,
            "componentType" : 5123,
            "count" : 1047,
            "max" : [
                458
            ],
            "min" : [
                0
            ],
            "type" : "SCALAR"
        },
        {
            "bufferView" : 4,
            "componentType" : 5126,
            "count" : 459,
            "max" : [
                0.8349149823188782,
                1.290241003036499,
                -0.0
            ],
            "min" : [
                -0.8349149823188782,
                -1.3031669855117798,
                -0.32286301255226135
            ],
            "type" : "VEC3"
        },
        {
            "bufferView" : 5,
            "componentType" : 5126,
            "count" : 459,
            "max" : [
                1.0,
                1.0,
                1.0
            ],
            "min" : [
                -1.0,
                -1.0,
                -1.0
            ],
            "type" : "VEC3"
        }
    ],
    "asset" : {
        "generator" : "Khronos Blender glTF 2.0 exporter",
        "version" : "2.0"
    },
    "bufferViews" : [
        {
            "buffer" : 0,
            "byteLength" : 1434,
            "byteOffset" : 0,
            "target" : 34963
        },
        {
            "buffer" : 0,
            "byteLength" : 4764,
            "byteOffset" : 1436,
            "target" : 34962
        },
        {
            "buffer" : 0,
            "byteLength" : 4764,
            "byteOffset" : 6200,
            "target" : 34962
        },
        {
            "buffer" : 0,
            "byteLength" : 2094,
            "byteOffset" : 10964,
            "target" : 34963
        },
        {
            "buffer" : 0,
            "byteLength" : 5508,
            "byteOffset" : 13060,
            "target" : 34962
        },
        {
            "buffer" : 0,
            "byteLength" : 5508,
            "byteOffset" : 18568,
            "target" : 34962
        }
    ],
    "buffers" : [
        {
            "byteLength" : 24076,
            "uri" : "paper_list_logo.bin"
        }
    ],
    "materials" : [
        {
            "alphaMode" : "BLEND",
            "name" : "blue",
            "pbrMetallicRoughness" : {
                "baseColorFactor" : [
                    0.012286498211324215,
                    0.00972122885286808,
                    0.08650048077106476,
                    1.0
                ],
                "metallicFactor" : 0.0
            }
        },
        {
            "name" : "white",
            "pbrMetallicRoughness" : {
                "baseColorFactor" : [
                    0.6400000190734865,
                    0.6400000190734865,
                    0.6400000190734865,
                    1.0
                ],
                "metallicFactor" : 0.0
            }
        }
    ],
    "meshes" : [
        {
            "name" : "Plane.003_Plane.009",
            "primitives" : [
                {
                    "attributes" : {
                        "NORMAL" : 2,
                        "POSITION" : 1
                    },
                    "indices" : 0,
                    "material" : 1
                },
                {
                    "attributes" : {
                        "NORMAL" : 5,
                        "POSITION" : 4
                    },
                    "indices" : 3,
                    "material" : 0
                }
            ]
        }
    ],
    "nodes" : [
        {
            "mesh" : 0,
            "name" : "Plane.003_Plane.009",
            "rotation" : [
                0.7071068286895752,
                0.0,
                -0.0,
                0.7071067094802856
            ]
        }
    ],
    "scene" : 0,
    "scenes" : [
        {
            "name" : "Scene",
            "nodes" : [
                0
            ]
        }
    ]
}
